<?xml version="1.0" standalone="no"?>
<!DOCTYPE svg PUBLIC "-//W3C//DTD SVG 20010904//EN"
 "http://www.w3.org/TR/2001/REC-SVG-20010904/DTD/svg10.dtd">
<svg version="1.0" xmlns="http://www.w3.org/2000/svg"
 width="118.000000pt" height="118.000000pt" viewBox="0 0 118.000000 118.000000"
 preserveAspectRatio="xMidYMid meet">
<metadata>
Created by potrace 1.11, written by Peter Selinger 2001-2013
</metadata>
<g transform="translate(0.000000,118.000000) scale(0.100000,-0.100000)"
fill="#000000" stroke="none">
<path d="M559 993 c-43 -107 -96 -208 -143 -271 -25 -34 -46 -68 -46 -76 0 -8
13 -40 29 -73 47 -95 76 -192 72 -241 -2 -25 -41 8 -61 51 -17 38 -27 81 -45
198 -7 48 -29 65 -101 82 -87 21 -123 41 -184 102 -86 87 -100 66 -38 -57 97
-196 197 -454 213 -550 l6 -38 328 0 328 0 12 61 c14 69 60 208 96 284 12 28
37 84 55 125 18 41 46 101 62 133 16 33 28 70 26 85 -3 26 -5 25 -64 -35 -73
-73 -103 -90 -194 -108 -3 0 -21 -7 -42 -13 -43 -15 -49 -25 -62 -109 -14 -90
-19 -111 -38 -156 -20 -46 -51 -76 -62 -59 -13 21 17 126 66 232 17 36 31 72
33 80 1 8 -23 51 -53 95 -54 79 -152 272 -152 300 0 32 -19 12 -41 -42z m69
-293 c36 -56 38 -64 18 -111 -57 -136 -56 -134 -70 -113 -18 28 -66 143 -66
160 0 19 62 114 75 114 6 0 25 -23 43 -50z m-373 -131 l44 -11 3 -88 c2 -48 1
-96 0 -105 -3 -15 -79 137 -97 195 -7 23 -7 23 50 9z m712 -21 c-57 -134 -82
-187 -86 -183 -9 10 -7 186 3 192 10 7 63 20 84 22 10 1 9 -6 -1 -31z"/>
</g>
</svg>
